<svg xmlns="http://www.w3.org/2000/svg" viewBox="0 0 256 244">
  <g fill="#764ABC">
    <path d="M127.9 0c-23.4 0-42.6 19.2-42.6 42.6 0 5 .9 9.8 2.5 14.3 5.3-1 10.7-1.4 16.3-1.4h1c2.2-8.4 9.8-14.6 18.8-14.6 10.6 0 19.3 8.6 19.3 19.3 0 8.6-5.8 16-13.9 18.4 5.5 3.2 10.3 7.3 14.3 12 17.6-7.5 28.9-23.2 28.9-42.6C170.5 19.2 151.3 0 127.9 0zM63.3 108.6c-10.2-2.4-20.2-.3-28.3 5.8C23.2 123.5 18 136 20 148.3c2.6 15.1 12.7 27.6 27.1 33.7 4.1-6.4 9.1-12.4 14.7-17.6-5.6-4.6-9.4-11.5-9.4-19.3 0-13.1 10.6-23.8 23.8-23.8 7.5 0 14.2 3.5 18.6 9 3.4-5.6 7.3-10.8 11.8-15.6-13.7-10.7-30.5-15.1-45.3-11.7zM194.4 113c-4.6 6.3-10.1 12-15.9 17.2 4.8 5.4 7.6 12.5 7.6 20.1 0 17-13.8 30.8-30.8 30.8-5.3 0-10.3-1.3-14.7-3.7-4.7 4.4-9.8 8.4-15.1 11.7 10.6 18.5 29.8 30.9 51.4 30.9 23.7 0 44.4-14.8 52.6-37 4.7-12.5 4.4-26-0.7-38.3-7.6-18.8-25.6-31.7-45.4-31.7zM94.6 106.1c-20.5 21.6-31.6 50.1-31.6 79.5 0 23.6 19.2 42.8 42.8 42.8 16.5 0 31.5-9.5 38.8-24.4 18.3-37.5 12.5-82.3-15.1-113.8-12.2-13.8-27.4-24-43.6-30.4-8.8 5.5-16.8 12.3-23.6 20.1 14.7 6.4 28.1 15.4 39.2 26.2 8.2 8.1 15.3 17.2 21.2 27.1z"></path>
  </g>
</svg>
